<svg width="38" height="33" viewBox="0 0 38 33" fill="none" xmlns="http://www.w3.org/2000/svg">
	<g clip-path="url(#clip0_1680_155)">
		<path d="M35.7666 13.6745L20.8616 13.6738C20.2034 13.6738 19.6699 14.1483 19.6699 14.7336V18.9685C19.6699 19.5537 20.2034 20.0283 20.8615 20.0283H29.2551C28.336 22.1497 26.6205 23.9264 24.4319 25.0552L28.0109 30.5656C33.7521 27.6125 37.1463 22.4309 37.1463 16.6306C37.1463 15.8047 37.0778 15.2143 36.941 14.5495C36.8369 14.0444 36.3439 13.6745 35.7666 13.6745Z" fill="#167EE6" />
		<path d="M18.8754 26.3912C14.7678 26.3912 11.1818 24.3952 9.25591 21.4414L3.06055 24.6174C6.21333 29.4773 12.1195 32.75 18.8754 32.75C22.1896 32.75 25.3169 31.9563 28.0108 30.5732V30.5657L24.4318 25.0553C22.7947 25.8997 20.9003 26.3912 18.8754 26.3912Z" fill="#12B347" />
		<path d="M28.0105 30.5736V30.5661L24.4315 25.0557C22.7944 25.9001 20.9001 26.3917 18.8751 26.3917V32.7504C22.1893 32.7504 25.3167 31.9567 28.0105 30.5736Z" fill="#0F993E" />
		<path d="M7.75382 16.5003C7.75382 14.6995 8.30637 13.0148 9.25566 11.5588L3.06029 8.38281C1.49664 10.7712 0.60437 13.545 0.60437 16.5003C0.60437 19.4555 1.49664 22.2293 3.06029 24.6177L9.25566 21.4417C8.30637 19.9858 7.75382 18.301 7.75382 16.5003Z" fill="#FFD500" />
		<path d="M18.8754 6.6087C21.554 6.6087 24.0144 7.45522 25.9362 8.86333C26.4103 9.21067 27.0994 9.1856 27.5337 8.79934L30.9074 5.7988C31.4001 5.36056 31.365 4.64321 30.8386 4.23709C27.6188 1.75268 23.4293 0.25 18.8754 0.25C12.1195 0.25 6.21333 3.52266 3.06055 8.38255L9.25591 11.5585C11.1818 8.60478 14.7678 6.6087 18.8754 6.6087Z" fill="#FF4B26" />
		<path d="M25.9359 8.86332C26.41 9.21067 27.0992 9.18559 27.5334 8.79934L30.9071 5.7988C31.3998 5.36056 31.3646 4.64321 30.8384 4.23709C27.6185 1.75262 23.429 0.25 18.8751 0.25V6.6087C21.5537 6.6087 24.0141 7.45522 25.9359 8.86332Z" fill="#D93F21" />
	</g>
	<defs>
		<clipPath id="clip0_1680_155">
			<rect x="0.60437" y="0.25" width="36.5416" height="32.5" rx="16.25" fill="white" />
		</clipPath>
	</defs>
</svg>
